<?xml version="1.0" encoding="UTF-8"?>
<svg version="1.1" xmlns="http://www.w3.org/2000/svg" width="78" height="88">
<path d="M0 0 C0.54193639 7.45162537 -0.77510851 13.23641332 -5.73046875 19.01953125 C-12.78255223 25.70563835 -21.19205212 27.3953114 -30.625 28.4375 C-31.83542969 28.61055664 -31.83542969 28.61055664 -33.0703125 28.78710938 C-39.06837471 29.4638388 -42.07857612 28.50902545 -47 25 C-50.48897047 21.51102953 -51.54453941 18.89620131 -52 14 C-48.04687837 12.02343919 -43.30778842 12.56625027 -39 13 C-34.49717946 14.56022327 -31.71931727 17.14763386 -29 21 C-28.72027344 20.20335938 -28.44054687 19.40671875 -28.15234375 18.5859375 C-23.47897312 6.2338132 -23.47897312 6.2338132 -17 3 C-11.35950813 1.20248061 -5.92820308 0 0 0 Z " fill="#29D129" transform="translate(71,48)"/>
<path d="M0 0 C2.78461086 0.84975272 4.39242142 1.87698549 6.64794922 3.69946289 C7.39375244 4.29259277 8.13955566 4.88572266 8.90795898 5.49682617 C10.07282837 6.44404541 10.07282837 6.44404541 11.26123047 7.41040039 C12.86631862 8.69375775 14.47307809 9.97502772 16.08154297 11.25415039 C16.85272461 11.86774414 17.62390625 12.48133789 18.41845703 13.11352539 C21.7921322 15.73053123 25.31290247 18.07342371 28.92138672 20.35571289 C30.57373047 21.78540039 30.57373047 21.78540039 31.44091797 23.82446289 C31.57373047 25.78540039 31.57373047 25.78540039 29.63623047 28.03540039 C28.95560547 28.61290039 28.27498047 29.19040039 27.57373047 29.78540039 C23.42520168 27.85585212 20.11660256 25.65799938 16.57373047 22.78540039 C15.58373047 22.45540039 14.59373047 22.12540039 13.57373047 21.78540039 C11.9070638 20.11873372 10.24039714 18.45206706 8.57373047 16.78540039 C7.2432455 15.63249011 5.88770266 14.50799625 4.51123047 13.41040039 C3.53476563 12.62536133 3.53476563 12.62536133 2.53857422 11.82446289 C0.66344014 10.59018156 0.66344014 10.59018156 -1.29394531 11.03173828 C-3.81161026 11.92159765 -5.43131699 13.12842396 -7.50830078 14.80493164 C-8.2759375 15.41530273 -9.04357422 16.02567383 -9.83447266 16.65454102 C-10.62789062 17.29584961 -11.42130859 17.9371582 -12.23876953 18.59790039 C-26.12867485 29.78540039 -26.12867485 29.78540039 -30.42626953 29.78540039 C-30.42626953 29.12540039 -30.42626953 28.46540039 -30.42626953 27.78540039 C-31.08626953 27.78540039 -31.74626953 27.78540039 -32.42626953 27.78540039 C-32.67626953 25.45336914 -32.67626953 25.45336914 -32.42626953 22.78540039 C-30.67626953 21.33618164 -30.67626953 21.33618164 -28.42626953 20.09790039 C-26.16328021 18.68861276 -26.16328021 18.68861276 -24.42626953 16.78540039 C-23.88792591 13.99618696 -23.96865249 11.67995115 -24.24267578 8.85961914 C-24.30326172 8.17512695 -24.36384766 7.49063477 -24.42626953 6.78540039 C-23.42626953 5.78540039 -23.42626953 5.78540039 -21.14111328 5.68774414 C-19.76632813 5.70514648 -19.76632813 5.70514648 -18.36376953 5.72290039 C-17.44466797 5.73192383 -16.52556641 5.74094727 -15.57861328 5.75024414 C-14.86833984 5.7618457 -14.15806641 5.77344727 -13.42626953 5.78540039 C-13.42626953 6.44540039 -13.42626953 7.10540039 -13.42626953 7.78540039 C-12.69021484 7.19629883 -11.95416016 6.60719727 -11.19580078 6.00024414 C-10.21998047 5.2487207 -9.24416016 4.49719727 -8.23876953 3.72290039 C-7.27583984 2.96879883 -6.31291016 2.21469727 -5.32080078 1.43774414 C-2.42626953 -0.21459961 -2.42626953 -0.21459961 0 0 Z " fill="#566271" transform="translate(41.42626953125,13.214599609375)"/>
<path d="M0 0 C0.3152595 5.98993047 -0.31780178 9.63560356 -3 15 C-4.40742022 12.18515955 -3.66652164 10.43063887 -3.0625 7.375 C-2.86785156 6.37210938 -2.67320313 5.36921875 -2.47265625 4.3359375 C-2.23869141 3.17964844 -2.23869141 3.17964844 -2 2 C-13.29125877 3.50655015 -13.29125877 3.50655015 -22 10 C-24.59778422 14.99004754 -26.26349121 19.3248046 -26 25 C-24.35 25.33 -22.7 25.66 -21 26 C-21 26.33 -21 26.66 -21 27 C-24.01905516 27.44637379 -27.03636588 27.85751687 -30.0625 28.25 C-30.91005859 28.37890625 -31.75761719 28.5078125 -32.63085938 28.640625 C-38.84311786 29.40816273 -41.91245307 28.6892921 -47 25 C-50.48897047 21.51102953 -51.54453941 18.89620131 -52 14 C-48.04687837 12.02343919 -43.30778842 12.56625027 -39 13 C-34.49717946 14.56022327 -31.71931727 17.14763386 -29 21 C-28.72027344 20.20335938 -28.44054687 19.40671875 -28.15234375 18.5859375 C-23.47897312 6.2338132 -23.47897312 6.2338132 -17 3 C-11.35950813 1.20248061 -5.92820308 0 0 0 Z " fill="#CDF4CD" transform="translate(71,48)"/>
<path d="M0 0 C3.5625 0.125 3.5625 0.125 5.5625 1.125 C5.69822155 3.52274745 5.79686868 5.91275245 5.875 8.3125 C5.91689453 8.98603516 5.95878906 9.65957031 6.00195312 10.35351562 C6.09676141 14.2406552 5.65457865 15.99771961 3.35546875 19.17578125 C0.5625 21.125 0.5625 21.125 -2.25 20.9375 C-2.971875 20.669375 -3.69375 20.40125 -4.4375 20.125 C-4.46638514 16.97918577 -4.48425923 13.83340531 -4.5 10.6875 C-4.50837891 9.78966797 -4.51675781 8.89183594 -4.52539062 7.96679688 C-4.52861328 7.11279297 -4.53183594 6.25878906 -4.53515625 5.37890625 C-4.54301147 4.19276733 -4.54301147 4.19276733 -4.55102539 2.98266602 C-4.3452369 -0.38474181 -3.47016241 0.12618772 0 0 Z " fill="#C4F2C4" transform="translate(45.4375,36.875)"/>
<path d="M0 0 C11.8244011 -0.86100008 11.8244011 -0.86100008 15.625 2.3125 C20 7.26315789 20 7.26315789 20 11 C15.37528578 12.54157141 10.93271184 12.48317796 6.25 11.3125 C3.32175735 9.60435845 1.80048158 7.86743363 0 5 C-0.10546875 2.33203125 -0.10546875 2.33203125 0 0 Z " fill="#1DCF1D" transform="translate(22,63)"/>
<path d="M0 0 C3.3 0 6.6 0 10 0 C10 3.3 10 6.6 10 10 C5.46625958 11.03039555 4.35532149 11.17766075 0 9 C0 6.03 0 3.06 0 0 Z " fill="#69DF69" transform="translate(30,48)"/>
<path d="M0 0 C2.01822917 0.06510417 4.03645833 0.13020833 6.0546875 0.1953125 C6.0546875 3.4953125 6.0546875 6.7953125 6.0546875 10.1953125 C2.7546875 10.1953125 -0.5453125 10.1953125 -3.9453125 10.1953125 C-4.140625 4.140625 -4.140625 4.140625 -3.9453125 2.1953125 C-1.9453125 0.1953125 -1.9453125 0.1953125 0 0 Z " fill="#6ADF6A" transform="translate(33.9453125,36.8046875)"/>
<path d="M0 0 C2.64 0 5.28 0 8 0 C8 2.31 8 4.62 8 7 C5.36 7 2.72 7 0 7 C0 4.69 0 2.38 0 0 Z " fill="#2AD22A" transform="translate(42,39)"/>
<path d="M0 0 C0.3152595 5.98993047 -0.31780178 9.63560356 -3 15 C-4.40742022 12.18515955 -3.66652164 10.43063887 -3.0625 7.375 C-2.86785156 6.37210938 -2.67320313 5.36921875 -2.47265625 4.3359375 C-2.31667969 3.56507812 -2.16070312 2.79421875 -2 2 C-4.25018142 2.47831397 -6.50013867 2.95768264 -8.75 3.4375 C-10.00296875 3.70433594 -11.2559375 3.97117188 -12.546875 4.24609375 C-15.04557085 4.7916235 -17.52553101 5.35638812 -20 6 C-17.37953949 2.67080284 -14.60961398 2.18072309 -10.5625 1.3125 C-9.42941406 1.06113281 -8.29632813 0.80976562 -7.12890625 0.55078125 C-4 0 -4 0 0 0 Z " fill="#C2F2C2" transform="translate(71,48)"/>
<path d="M0 0 C2.64 0 5.28 0 8 0 C8 3 8 3 6.5625 4.5 C6.046875 4.995 5.53125 5.49 5 6 C4.67 6.99 4.34 7.98 4 9 C2.68 9 1.36 9 0 9 C0 6.03 0 3.06 0 0 Z " fill="#46D946" transform="translate(42,49)"/>
<path d="M0 0 C1.50433594 0.01353516 1.50433594 0.01353516 3.0390625 0.02734375 C3.80992188 0.03894531 4.58078125 0.05054688 5.375 0.0625 C5.375 0.7225 5.375 1.3825 5.375 2.0625 C2.075 2.0625 -1.225 2.0625 -4.625 2.0625 C-3.5155928 5.54920834 -2.36162334 8.83734237 -0.625 12.0625 C-1.285 12.0625 -1.945 12.0625 -2.625 12.0625 C-6.02527839 8.55918287 -7.17461229 5.90416786 -7.625 1.0625 C-4.98041621 -0.25979189 -2.94738699 -0.03427194 0 0 Z " fill="#92E892" transform="translate(26.625,60.9375)"/>
<path d="M0 0 C0.3125 2.25 0.3125 2.25 0 5 C-2.5 7.3125 -2.5 7.3125 -5 9 C-4.34 7.35 -3.68 5.7 -3 4 C-2.34 4 -1.68 4 -1 4 C-1 3.01 -1 2.02 -1 1 C-3.64 1 -6.28 1 -9 1 C-9 3.64 -9 6.28 -9 9 C-9.33 9 -9.66 9 -10 9 C-10 6.03 -10 3.06 -10 0 C-6.30458414 -0.95024979 -3.69541586 -0.95024979 0 0 Z " fill="#DAF7DA" transform="translate(51,48)"/>
<path d="M0 0 C0 3 0 3 -2.40625 5.48046875 C-3.43005231 6.39125392 -4.46167034 7.29331192 -5.5 8.1875 C-6.02464844 8.65091797 -6.54929687 9.11433594 -7.08984375 9.59179688 C-8.38666224 10.735355 -9.69249867 11.86867174 -11 13 C-11.66 12.67 -12.32 12.34 -13 12 C-13 10.35 -13 8.7 -13 7 C-12.67 7.99 -12.34 8.98 -12 10 C-5.66476557 5.39353807 -5.66476557 5.39353807 0 0 Z " fill="#6EE06E" transform="translate(57,61)"/>
<path d="M0 0 C0.66 0.33 1.32 0.66 2 1 C1.34 2.65 0.68 4.3 0 6 C1.98 6 3.96 6 6 6 C5.67 6.66 5.34 7.32 5 8 C2.4375 8.625 2.4375 8.625 0 9 C0 8.34 0 7.68 0 7 C-0.66 7 -1.32 7 -2 7 C-2.125 4.625 -2.125 4.625 -2 2 C-1.34 1.34 -0.68 0.68 0 0 Z " fill="#ABB4B9" transform="translate(11,34)"/>
<path d="" fill="#FFFFFF" transform="translate(0,0)"/>
</svg>
